# xmcd CD database file
#
# Track frame offsets:
#	182
#	13247
#	28032
#	41465
#	56685
#	70082
#	83467
#	97855
#	112325
#	126102
#	138237
#	151612
#	165345
#	179082
#	193687
#	206970
#	221170
#	235467
#	249455
#	262930
#
# Disc length: 3677 seconds
#
# Revision: 0
# Processed by: cddbd v1.4PL0 Copyright (c) Steve Scherf et al.
# Submitted via: CDex 1.50
#
DISCID=180e5b14
DTITLE=Louis Armstrong - Swing That Music
DYEAR=1900
DGENRE=Jazz
TTITLE0=Swing That Music
TTITLE1=You're a Lucky Guy
TTITLE2=Struttin' With Some Barbecue
TTITLE3=You'll Wish You'd Never Been Born
TTITLE4=Don't Play Me Cheap
TTITLE5=I Double Dare You
TTITLE6=Hustlin' and Bustli' For Baby
TTITLE7=Lyin' To Myself
TTITLE8=Sittin' In The Dark
TTITLE9=He's a Son Of The South
TTITLE10=Thankful
TTITLE11=Some Sweet Day
TTITLE12=Honey Don't You Love Me Anymore
TTITLE13=I've Got The World On A String
TTITLE14=Dusky Stevedore
TTITLE15=I Wonder Who
TTITLE16=If We Never Meet Again
TTITLE17=Lazy River
TTITLE18=I Come From A Musical Family
TTITLE19=Ev'ntide
EXTD=
EXTT0=
EXTT1=
EXTT2=
EXTT3=
EXTT4=
EXTT5=
EXTT6=
EXTT7=
EXTT8=
EXTT9=
EXTT10=
EXTT11=
EXTT12=
EXTT13=
EXTT14=
EXTT15=
EXTT16=
EXTT17=
EXTT18=
EXTT19=
PLAYORDER=
